<svg width="32" height="33" viewBox="0 0 32 33" fill="none" xmlns="http://www.w3.org/2000/svg">
<path d="M16 0.988525C20.2435 0.988525 24.3131 2.67423 27.3137 5.67481C30.3143 8.6754 32 12.7451 32 16.9885C32 21.232 30.3143 25.3017 27.3137 28.3022C24.3131 31.3028 20.2435 32.9885 16 32.9885C11.7565 32.9885 7.68687 31.3028 4.68629 28.3022C1.68571 25.3017 -5.26686e-07 21.232 -7.1679e-07 16.9885C-9.06895e-07 12.7451 1.68571 8.6754 4.68629 5.67482C7.68687 2.67423 11.7565 0.988525 16 0.988525V0.988525ZM9 15.9885C8.73478 15.9885 8.48043 16.0939 8.29289 16.2814C8.10536 16.469 8 16.7233 8 16.9885C8 17.2537 8.10536 17.5081 8.29289 17.6956C8.48043 17.8832 8.73478 17.9885 9 17.9885L20.586 17.9885L16.292 22.2805C16.1042 22.4683 15.9987 22.723 15.9987 22.9885C15.9987 23.2541 16.1042 23.5088 16.292 23.6965C16.4798 23.8843 16.7344 23.9898 17 23.9898C17.2656 23.9898 17.5202 23.8843 17.708 23.6965L23.708 17.6965C23.8011 17.6036 23.875 17.4933 23.9254 17.3718C23.9758 17.2503 24.0018 17.1201 24.0018 16.9885C24.0018 16.857 23.9758 16.7267 23.9254 16.6053C23.875 16.4838 23.8011 16.3734 23.708 16.2805L17.708 10.2805C17.5202 10.0928 17.2656 9.98726 17 9.98726C16.7344 9.98726 16.4798 10.0928 16.292 10.2805C16.1042 10.4683 15.9987 10.723 15.9987 10.9885C15.9987 11.2541 16.1042 11.5088 16.292 11.6965L20.586 15.9885L9 15.9885Z" fill="#00E3A5"/>
</svg>
