<svg width="32" height="33" viewBox="0 0 32 33" fill="none" xmlns="http://www.w3.org/2000/svg">
<path d="M16 32.9885C11.7565 32.9885 7.68687 31.3028 4.68629 28.3022C1.68571 25.3017 2.4741e-07 21.232 1.95547e-07 16.9885C1.43685e-07 12.7451 1.68571 8.6754 4.68629 5.67482C7.68687 2.67424 11.7565 0.988526 16 0.988526C20.2435 0.988526 24.3131 2.67424 27.3137 5.67482C30.3143 8.6754 32 12.7451 32 16.9885C32 21.232 30.3143 25.3017 27.3137 28.3022C24.3131 31.3028 20.2435 32.9885 16 32.9885V32.9885ZM23 17.9885C23.2652 17.9885 23.5196 17.8832 23.7071 17.6956C23.8946 17.5081 24 17.2537 24 16.9885C24 16.7233 23.8946 16.469 23.7071 16.2814C23.5196 16.0939 23.2652 15.9885 23 15.9885L11.414 15.9885L15.708 11.6965C15.8958 11.5088 16.0013 11.2541 16.0013 10.9885C16.0013 10.723 15.8958 10.4683 15.708 10.2805C15.5202 10.0928 15.2656 9.98726 15 9.98726C14.7344 9.98726 14.4798 10.0928 14.292 10.2805L8.292 16.2805C8.19887 16.3734 8.12499 16.4838 8.07458 16.6053C8.02416 16.7267 7.99821 16.857 7.99821 16.9885C7.99821 17.1201 8.02416 17.2503 8.07458 17.3718C8.12499 17.4933 8.19887 17.6036 8.292 17.6965L14.292 23.6965C14.4798 23.8843 14.7344 23.9898 15 23.9898C15.2656 23.9898 15.5202 23.8843 15.708 23.6965C15.8958 23.5088 16.0013 23.2541 16.0013 22.9885C16.0013 22.723 15.8958 22.4683 15.708 22.2805L11.414 17.9885L23 17.9885Z" fill="#00E3A5"/>
</svg>
