<svg width="343" height="89" viewBox="0 0 343 89" fill="none" xmlns="http://www.w3.org/2000/svg">
<rect opacity="0.5" y="0.243042" width="343" height="88" rx="44" fill="#091D18"/>
<g opacity="0.48">
<path fill-rule="evenodd" clip-rule="evenodd" d="M44.3204 50.2259C44.9048 50.2259 45.4448 50.1221 45.9566 49.9266C45.961 49.9364 47.0029 51.5185 47.0179 51.5295C46.0748 52.025 45.0891 52.243 44.0116 52.243C40.8085 52.243 38.4835 50.1801 38.4835 46.8869C38.4835 43.5699 40.9273 41.5069 44.0116 41.5069C45.1098 41.5069 45.9754 41.7397 46.8473 42.1954C46.751 42.3518 45.8535 43.8411 45.8504 43.8472C45.3333 43.6461 44.7813 43.5445 44.2248 43.5479C42.3266 43.5479 40.856 44.7305 40.856 46.8869C40.856 48.9272 42.2791 50.2259 44.3204 50.2259ZM52.3991 41.5069C55.5548 41.5069 57.8323 43.6871 57.8323 46.8869C57.8323 50.0634 55.5548 52.243 52.3991 52.243C49.2679 52.243 46.9904 50.0641 46.9904 46.8869C46.9904 43.6871 49.2679 41.5069 52.3991 41.5069ZM52.3991 43.4782C50.6441 43.4782 49.3623 44.8002 49.3623 46.8869C49.3623 48.951 50.6435 50.2724 52.3998 50.2724C54.2029 50.2724 55.4604 48.951 55.4604 46.8869C55.4604 44.8002 54.2029 43.4782 52.3991 43.4782ZM59.3273 52.0115V41.7385H61.6754V52.0115H59.3273ZM59.0185 38.5845C59.0185 37.7965 59.7073 37.171 60.4898 37.171C61.2729 37.171 61.9604 37.7965 61.9604 38.5851C61.9604 39.397 61.2729 40.0463 60.4898 40.0463C59.7073 40.0463 59.0185 39.397 59.0185 38.5851V38.5845ZM63.7248 42.3884C65.1954 41.8319 66.9998 41.5069 68.541 41.5069C71.2223 41.5069 72.9304 42.5039 72.9304 45.4025V52.0115H70.6054V45.6114C70.6054 44.1276 69.6566 43.5937 68.351 43.5937C67.5204 43.5937 66.691 43.7098 66.0735 43.8955V52.0115H63.7248V42.3884ZM74.8973 36.243H77.2454V42.0176C77.7435 41.7623 78.716 41.5069 79.641 41.5069C82.6785 41.5069 84.9554 43.408 84.9554 46.7012C84.9554 50.017 82.7023 52.243 78.8116 52.243C77.4772 52.2392 76.1532 52.012 74.8973 51.5711V36.243ZM77.2454 50.0641C77.696 50.2027 78.2891 50.2718 78.8823 50.2718C81.041 50.2718 82.5835 49.1129 82.5835 46.747C82.5835 44.7531 81.1366 43.5705 79.3573 43.5705C78.4323 43.5705 77.7198 43.8026 77.2448 44.0579L77.2454 50.0641ZM91.7404 45.1239C91.7404 44.0109 90.886 43.5014 89.7235 43.5014C88.5135 43.5014 87.5648 43.849 86.6873 44.3359V42.3414C87.6123 41.8319 88.7979 41.5069 90.1035 41.5069C92.4041 41.5069 94.041 42.4342 94.041 45.0079V51.8026C93.0448 52.0573 91.6223 52.2204 90.436 52.2204C87.7073 52.2204 85.7141 51.4086 85.7141 49.0897C85.7141 47.003 87.5404 45.9828 90.5773 45.9828H91.7398L91.7404 45.1239ZM91.7404 47.5124H90.7441C89.1066 47.5124 88.0391 47.9767 88.0391 49.0201C88.0391 50.0867 89.036 50.5039 90.4591 50.5039C90.8154 50.5039 91.3135 50.4575 91.7404 50.3878V47.5124ZM95.7491 49.229C96.7223 49.9474 97.8841 50.3878 98.9516 50.3878C99.996 50.3878 100.684 50.0402 100.684 49.229C100.684 48.3933 100.067 48.0922 98.7154 47.7446C96.5323 47.2577 95.6066 46.4 95.6066 44.6145C95.6066 42.5271 97.2204 41.5069 99.3554 41.5069C100.542 41.5069 101.49 41.7623 102.368 42.295V44.4055C101.443 43.7568 100.542 43.3622 99.4266 43.3622C98.4066 43.3622 97.861 43.849 97.861 44.5216C97.861 45.1936 98.311 45.5418 99.5216 45.8655C101.919 46.3762 102.962 47.2583 102.962 49.1129C102.962 51.2693 101.277 52.243 98.9998 52.243C97.766 52.243 96.5323 51.9193 95.7498 51.4086L95.7491 49.229ZM106.177 47.397V47.4434C106.319 49.2748 107.932 50.2718 109.569 50.2718C111.016 50.2718 112.06 49.9474 113.104 49.2748V51.2931C112.155 51.9419 110.755 52.243 109.404 52.243C106.129 52.243 103.899 50.2027 103.899 46.9565C103.899 43.6871 106.081 41.5076 108.976 41.5076C112.036 41.5076 113.484 43.4318 113.484 46.2369V47.3976L106.177 47.397ZM111.277 45.9126C111.23 44.3121 110.424 43.4318 108.905 43.4318C107.552 43.4318 106.556 44.3597 106.248 45.9132L111.277 45.9126Z" fill="#FFCA05"/>
<path d="M224.014 37.5052H232.252C232.247 37.6118 232.21 37.7144 232.144 37.7997C231.865 38.2672 231.614 38.7539 231.34 39.2214C230.953 39.8928 230.59 40.5764 230.196 41.245C229.947 41.7262 229.665 42.1924 229.399 42.6654C227.798 42.6654 226.197 42.6654 224.596 42.6654C224.512 42.6654 224.429 42.6695 224.345 42.6742C224.276 42.8542 224.16 43.0116 224.067 43.1806C223.945 43.3742 223.846 43.5807 223.725 43.7743C223.597 44.0346 223.421 44.2677 223.293 44.5274C223.028 44.967 222.78 45.4134 222.521 45.8578C222.25 46.3122 221.986 46.7729 221.727 47.24C221.618 47.4056 221.517 47.5764 221.425 47.7519C220.884 48.6733 220.359 49.603 219.817 50.5238C219.771 50.6228 219.71 50.7146 219.637 50.7964C218.709 50.7903 217.782 50.7964 216.855 50.7964C216.741 50.7985 216.627 50.8141 216.517 50.8428C216.517 50.5919 216.688 50.3909 216.804 50.1803C216.943 49.8974 217.129 49.635 217.27 49.3515C218.381 47.4077 219.481 45.4571 220.589 43.5119C220.84 43.0893 221.055 42.6579 221.307 42.2435C221.623 41.6982 221.916 41.1407 222.245 40.6016C222.349 40.376 222.49 40.1695 222.605 39.9493C223.014 39.2385 223.415 38.5235 223.822 37.8126C223.87 37.7016 223.935 37.5981 224.014 37.5052Z" fill="#FFCA05"/>
<path d="M233.56 40.3673C234.109 39.4301 234.639 38.4827 235.196 37.5497H238.171C238.215 37.5518 238.258 37.5585 238.3 37.5694C238.201 37.716 238.118 37.8714 238.031 38.0241C237.313 39.2831 236.597 40.5429 235.884 41.8033C235.584 42.3165 235.305 42.8413 235.001 43.3518L234.971 43.3621L234.965 43.4261C233.566 45.8798 232.172 48.3352 230.782 50.7925C228.05 50.7952 225.318 50.7952 222.586 50.7925C222.741 50.4749 222.925 50.1716 223.098 49.8628C223.876 48.4642 224.675 47.0779 225.442 45.6794C227.12 45.6766 228.799 45.6766 230.477 45.6794C231.514 43.9141 232.529 42.1352 233.558 40.3673H233.56Z" fill="#FFCA05"/>
<path d="M264.273 37.5135V50.954H266.655V41.5027L271.001 47.7275L275.313 41.3548V50.954H277.765V37.5135H275.127L271.019 43.7178L266.865 37.5135H264.273Z" fill="#FFCA05"/>
<path d="M253.128 40.98H254.685V51.0671H253.128V40.98Z" fill="#FFCA05"/>
<path d="M252.995 37.2429H254.819V38.9352H252.995V37.2429Z" fill="#FFCA05"/>
<path d="M257.661 38.0894H259.287V40.9799H262.495V42.3887H259.287V48.381C259.284 48.6119 259.339 48.84 259.447 49.0455C259.722 49.5567 260.471 50.1633 262.495 49.4544V50.7603C262.495 50.7603 260.647 51.7827 258.974 50.8516C258.974 50.8516 258.142 50.5068 257.793 49.3427C257.702 49.0308 257.658 48.7079 257.661 48.3837V42.3662L256.289 42.3887V40.9799H257.672L257.661 38.0894Z" fill="#FFCA05"/>
<path d="M280.275 37.5135V51.0446H290.617V48.8636H282.797V45.2738H289.688V43.1269H282.785V39.7082H290.536V37.5135H280.275Z" fill="#FFCA05"/>
<path d="M291.588 37.5135H294.534L297.916 42.2641L301.271 37.5135H304.217L299.406 44.1125L304.517 51.0331H301.414L297.927 45.9786L294.272 51.0446H291.326L296.364 44.1724L291.588 37.5135Z" fill="#FFCA05"/>
<path d="M248.363 44.0245C248.363 44.0245 250.641 43.1841 250.502 40.7646C250.502 40.7646 250.483 38.4377 247.803 37.7193C247.357 37.6026 246.897 37.5448 246.436 37.5476H240.008L240.025 50.988H246.946C246.946 50.988 250.996 50.9028 251.281 47.3757C251.281 47.3757 251.571 44.9105 248.363 44.0245ZM241.67 38.9352H245.772C248.991 38.9243 248.898 41.1394 248.898 41.1394C248.946 43.6667 245.993 43.6155 245.993 43.6155H241.67V38.9352ZM246.69 49.5676H241.67V44.888H246.47C249.688 44.8764 249.595 47.0915 249.595 47.0915C249.644 49.6188 246.69 49.5676 246.69 49.5676Z" fill="#FFCA05"/>
<path d="M135.954 64.9421L139.1 61.8359L142.248 64.9447L144.078 63.1363L139.1 58.2191L134.123 63.135L135.954 64.9421Z" fill="#FFCA05"/>
<path d="M130.999 66.2194L132.829 64.4116L134.66 66.2194L132.829 68.0271L130.999 66.2194Z" fill="#FFCA05"/>
<path d="M135.954 67.4961L139.1 70.6036L142.248 67.4949L144.079 69.3007L144.078 69.302L139.1 74.2191L134.123 69.3045L134.12 69.302L135.954 67.4961Z" fill="#FFCA05"/>
<path d="M143.538 66.2198L145.368 64.4121L147.199 66.2198L145.368 68.0276L143.538 66.2198Z" fill="#FFCA05"/>
<path d="M140.957 66.2185L139.101 64.3835L137.728 65.7395L137.569 65.895L137.244 66.2159L137.241 66.2185L137.244 66.2223L139.101 68.0547L140.957 66.2197L140.958 66.2185H140.957Z" fill="#FFCA05"/>
<path d="M150.055 62.0963H154.036C155.024 62.0963 155.772 62.3491 156.278 62.8545C156.469 63.0413 156.62 63.2644 156.721 63.5103C156.822 63.7562 156.871 64.0198 156.866 64.2851V64.3091C156.869 64.5264 156.838 64.743 156.775 64.9511C156.718 65.1302 156.636 65.3004 156.53 65.4566C156.432 65.6038 156.313 65.7365 156.177 65.8508C156.044 65.9638 155.899 66.0613 155.743 66.1415C156.191 66.2956 156.594 66.556 156.917 66.8997C157.202 67.2199 157.344 67.6622 157.344 68.2266V68.2506C157.352 68.6032 157.275 68.9525 157.118 69.2692C156.966 69.561 156.743 69.8111 156.469 69.9971C156.159 70.2021 155.815 70.3498 155.452 70.4331C155.02 70.5341 154.578 70.5829 154.135 70.5784H150.055V62.0963ZM153.637 65.5261C153.982 65.5425 154.325 65.4693 154.631 65.3138C154.751 65.2447 154.849 65.144 154.914 65.0229C154.978 64.9019 155.007 64.7653 154.997 64.6288V64.6048C155.004 64.479 154.978 64.3537 154.922 64.2404C154.867 64.127 154.783 64.0294 154.679 63.9565C154.466 63.8074 154.16 63.7328 153.759 63.7328H151.896V65.5261H153.637ZM154.14 68.9444C154.483 68.9634 154.825 68.8859 155.125 68.7208C155.242 68.6465 155.337 68.5426 155.4 68.4199C155.462 68.2972 155.49 68.1602 155.481 68.0232V67.9992C155.486 67.8689 155.458 67.7395 155.4 67.6223C155.342 67.5051 155.256 67.4036 155.15 67.3269C154.93 67.1584 154.574 67.0741 154.083 67.0741H151.896V68.9444H154.14Z" fill="#FFCA05"/>
<path d="M159.716 62.0963H161.606V70.581H159.716V62.0963Z" fill="#FFCA05"/>
<path d="M164.466 62.0963H166.209L170.237 67.318V62.0963H172.102V70.581H170.494L166.334 65.1874V70.581H164.466V62.0963Z" fill="#FFCA05"/>
<path d="M177.824 62.0356H179.565L183.246 70.5809H181.273L180.487 68.6778H176.855L176.069 70.5809H174.142L177.824 62.0356ZM179.813 67.0299L178.669 64.2775L177.53 67.0299H179.813Z" fill="#FFCA05"/>
<path d="M185.289 62.0963H187.032L191.057 67.318V62.0963H192.923V70.581H191.315L187.155 65.1874V70.581H185.289V62.0963Z" fill="#FFCA05"/>
<path d="M199.725 70.73C199.123 70.7351 198.526 70.6199 197.969 70.3913C197.446 70.1778 196.971 69.863 196.573 69.4654C196.174 69.0678 195.86 68.5954 195.65 68.0762C195.427 67.533 195.315 66.9522 195.318 66.3664V66.3424C195.308 65.1876 195.758 64.0752 196.571 63.245C196.971 62.8394 197.45 62.5179 197.978 62.2997C198.554 62.0643 199.171 61.947 199.794 61.9547C200.162 61.952 200.53 61.9846 200.892 62.052C201.202 62.1098 201.504 62.1992 201.795 62.3187C202.059 62.4284 202.31 62.5666 202.544 62.7306C202.772 62.8906 202.986 63.069 203.184 63.2639L201.982 64.6338C201.675 64.3541 201.331 64.1172 200.958 63.9299C200.593 63.7572 200.192 63.6707 199.786 63.6772C199.449 63.6736 199.115 63.741 198.806 63.8747C198.497 64.0085 198.221 64.2057 197.995 64.4531C197.771 64.6999 197.596 64.9857 197.478 65.296C197.355 65.6239 197.293 65.9711 197.295 66.3209V66.3449C197.294 66.6941 197.356 67.0408 197.478 67.3685C197.594 67.6799 197.768 67.9673 197.99 68.2165C198.214 68.4669 198.49 68.667 198.799 68.803C199.108 68.9391 199.443 69.008 199.781 69.005C200.212 69.0184 200.64 68.9268 201.026 68.7384C201.394 68.5403 201.735 68.2956 202.038 68.0105L203.241 69.211C203.029 69.4387 202.799 69.6499 202.554 69.8429C202.313 70.0309 202.052 70.1915 201.775 70.3218C201.48 70.4591 201.168 70.5605 200.848 70.6238C200.479 70.6971 200.102 70.7326 199.725 70.73Z" fill="#FFCA05"/>
<path d="M205.471 62.0963H211.937V63.7568H207.331V65.478H211.387V67.1386H207.337V68.9204H212.001V70.581H205.475L205.471 62.0963Z" fill="#FFCA05"/>
<path fill-rule="evenodd" clip-rule="evenodd" d="M132.044 23.392C132.998 23.392 133.872 22.992 134.481 22.392C134.613 22.242 134.904 21.967 134.878 22.017L136.917 24.092C135.752 25.417 134.004 26.267 132.018 26.267C128.496 26.267 125.663 23.592 125.663 20.267C125.663 16.942 128.496 14.267 132.018 14.267C133.898 14.267 135.593 15.042 136.758 16.267L134.719 18.342L134.242 17.892C133.66 17.392 132.892 17.092 132.044 17.092C130.217 17.092 128.708 18.492 128.708 20.242C128.708 21.967 130.191 23.392 132.044 23.392ZM210.479 26.067C211.432 26.067 212.094 25.442 212.094 24.542C212.094 23.667 211.432 23.067 210.479 23.042C209.552 23.042 208.89 23.667 208.89 24.542C208.89 25.442 209.552 26.067 210.479 26.067ZM158.604 22.442C157.995 23.042 157.121 23.442 156.168 23.442C154.314 23.442 152.831 22.017 152.831 20.292C152.831 18.542 154.341 17.142 156.168 17.142C157.015 17.142 157.783 17.442 158.366 17.942L158.842 18.392L160.908 16.267C159.743 15.042 158.048 14.267 156.168 14.267C152.646 14.267 149.813 16.942 149.813 20.267C149.813 23.592 152.646 26.267 156.168 26.267C158.154 26.267 159.902 25.417 161.067 24.092L159.028 22.017C159.028 22.017 158.737 22.292 158.604 22.442ZM219.403 23.392C220.356 23.392 221.23 22.992 221.839 22.392C221.971 22.242 222.263 21.967 222.236 22.017L224.275 24.092C223.11 25.417 221.362 26.267 219.376 26.267C215.854 26.267 213.021 23.592 213.021 20.267C213.021 16.942 215.854 14.267 219.376 14.267C221.256 14.267 222.951 15.042 224.116 16.267L222.077 18.342L221.601 17.892C221.018 17.392 220.25 17.092 219.403 17.092C217.576 17.092 216.066 18.492 216.066 20.242C216.066 21.967 217.549 23.392 219.403 23.392ZM99.5796 20.017C100.665 19.567 101.46 18.792 101.46 17.442V17.417C101.46 16.617 101.168 16.017 100.665 15.567C99.9503 14.867 98.8911 14.517 97.3553 14.517H91V26.017H97.3817C100.295 26.017 101.989 24.817 101.989 22.842V22.817C101.989 21.242 101.062 20.467 99.5796 20.017ZM94.3895 17.067H96.5873C97.5936 17.067 98.1232 17.417 98.1232 18.042V18.067C98.1232 18.742 97.5406 19.067 96.5079 19.067H94.3895V17.067ZM98.6263 22.417C98.6263 23.092 98.0437 23.467 97.011 23.467H94.3895V21.342H96.9581C98.0967 21.342 98.5998 21.742 98.5998 22.367V22.417H98.6263ZM103.049 14.517H106.438V23.242H111.919V26.017H103.049V14.517ZM170.388 18.817H166.045V14.517H162.656V26.042L166.045 26.017V21.642H170.388V26.017H173.777V14.517H170.388V18.817ZM180.424 14.517H183.654L188.818 26.017H185.217L184.343 23.967H179.682L178.809 26.017H175.287L180.424 14.517ZM181.986 18.267L180.636 21.517H183.337L181.986 18.267ZM193.717 14.517H190.327V26.042H193.717V14.517ZM203.515 20.617V14.542H206.904V26.042H203.912L198.695 19.717V26.042H195.306V14.517L198.483 14.542L203.515 20.617ZM149.866 14.517H145.867L141.657 19.192V14.517H138.267V26.042H141.657V23.067L142.901 21.767L146.317 26.042H150.342L145.099 19.467L149.866 14.517ZM112.184 20.267C112.184 16.942 115.018 14.267 118.539 14.267C122.035 14.267 124.895 16.942 124.895 20.267C124.895 23.592 122.061 26.267 118.539 26.267C115.018 26.267 112.184 23.592 112.184 20.267ZM115.203 20.267C115.203 21.992 116.686 23.417 118.539 23.417C120.393 23.417 121.876 22.017 121.876 20.267C121.876 18.542 120.393 17.117 118.539 17.117C116.712 17.117 115.203 18.517 115.203 20.267ZM230.922 14.267C227.4 14.267 224.566 16.942 224.566 20.267C224.566 23.592 227.4 26.267 230.922 26.267C234.444 26.267 237.277 23.592 237.277 20.267C237.277 16.942 234.444 14.267 230.922 14.267ZM230.922 23.417C229.068 23.417 227.585 21.992 227.585 20.267C227.585 18.517 229.095 17.117 230.922 17.117C232.775 17.117 234.258 18.542 234.258 20.267C234.285 22.017 232.775 23.417 230.922 23.417ZM248.822 19.192L246.386 24.842H244.029L241.593 19.192V25.992H238.416V14.517H242.282L245.221 20.867L248.16 14.517H252V25.992H248.822V19.192Z" fill="#FFCA05"/>
</g>
</svg>
