<svg width="86" height="85" viewBox="0 0 86 85" fill="none" xmlns="http://www.w3.org/2000/svg">
<path fill-rule="evenodd" clip-rule="evenodd" d="M76.8842 68.305C75.4273 68.305 74.072 68.6946 72.8748 69.3327L54.4711 50.8612C55.64 49.2236 56.4701 47.3431 56.8541 45.2932H63.2522C63.8364 46.9407 64.9192 48.3653 66.3502 49.3692C67.7811 50.3731 69.4892 50.9064 71.2372 50.8951C75.9186 50.8951 79.7078 47.2132 79.7078 42.6617C79.7078 38.1101 75.9186 34.4283 71.2372 34.4283C69.4521 34.4174 67.7098 34.9745 66.2622 36.019C64.8146 37.0636 63.7368 38.5415 63.1845 40.2391H56.8654C56.5327 38.3117 55.7976 36.4761 54.7082 34.8518L73.2871 16.2052C74.3826 16.7078 75.5911 17.0127 76.8842 17.0127C81.5657 17.0127 85.3548 13.3308 85.3548 8.77931C85.3548 4.22778 81.5657 0.545898 76.8842 0.545898C72.2085 0.545898 68.4249 4.22778 68.4249 8.77931C68.4249 10.2532 68.8485 11.6198 69.5487 12.817L51.1619 31.2772C49.4836 30.085 47.5633 29.2772 45.5374 28.9111V22.2419C48.9652 21.1915 51.4725 18.1139 51.4725 14.4264C51.4725 9.87484 47.6833 6.19296 43.0019 6.19296C38.3261 6.19296 34.5426 9.87484 34.5426 14.4264C34.5426 18.1252 37.0555 21.2198 40.5172 22.2588V28.9054C38.4617 29.2668 36.5642 30.0631 34.921 31.2094L16.5115 12.7379C17.1779 11.5577 17.5901 10.225 17.5901 8.78496C17.5901 4.23343 13.801 0.551545 9.11954 0.551545C4.44378 0.551545 0.660249 4.23343 0.660249 8.78496C0.660249 13.3365 4.44378 17.0184 9.11954 17.0184C10.441 17.0184 11.689 16.6965 12.8014 16.1713L31.352 34.7897C30.2452 36.3991 29.4885 38.2513 29.1327 40.2504H22.8193C22.2667 38.5519 21.188 37.0733 19.7393 36.0287C18.2906 34.984 16.547 34.4274 14.761 34.4395C10.0852 34.4395 6.30166 38.1214 6.30166 42.673C6.30166 47.2245 10.0852 50.9064 14.761 50.9064C18.488 50.9064 21.6221 48.5572 22.7459 45.3045H29.144C29.528 47.3883 30.392 49.297 31.5948 50.9515L13.2193 69.3948C11.9619 68.7008 10.5502 68.3338 9.1139 68.3275C4.43813 68.3275 0.654602 72.0094 0.654602 76.561C0.654602 81.1125 4.43813 84.7944 9.1139 84.7944C13.7953 84.7944 17.5845 81.1125 17.5845 76.561C17.5845 75.2847 17.2626 74.0932 16.7374 73.0259L35.2315 54.4527C36.7958 55.4918 38.5859 56.1977 40.5115 56.5365V63.0814C37.0555 64.1205 34.537 67.2094 34.537 70.9139C34.537 75.4654 38.3205 79.1473 42.9962 79.1473C47.6777 79.1473 51.4668 75.4654 51.4668 70.9139C51.4668 67.232 48.9652 64.1487 45.5318 63.0984V56.5308C47.4744 56.1807 49.2758 55.4579 50.8513 54.4019L69.3115 72.9299C68.7297 74.0521 68.4239 75.2969 68.4193 76.561C68.4193 81.1125 72.2028 84.7944 76.8786 84.7944C81.56 84.7944 85.3492 81.1125 85.3492 76.561C85.3492 72.0094 81.5657 68.305 76.8842 68.305Z" fill="#FFCA05"/>
</svg>
