


<svg width="103" height="54" viewBox="0 0 103 27" fill="none" xmlns="http://www.w3.org/2000/svg">
<path d="M0.966507 26.1235H17.8145V21.3355H8.34651L13.2785 16.4035C15.6545 14.0275 17.4185 11.3995 17.4185 8.33953C17.4185 3.29954 13.4225 0.419533 9.10251 0.419533C5.68251 0.419533 2.40651 2.14753 0.786507 5.74753L4.96251 8.19553C5.79051 6.39553 7.23051 5.24353 9.17451 5.24353C11.0825 5.24353 12.4505 6.50353 12.4505 8.51953C12.4505 10.2115 11.1905 11.8675 9.57051 13.5595L0.966507 22.4155V26.1235ZM30.1079 26.6275C36.5519 26.6275 40.1879 21.2995 40.1879 13.5235C40.1879 5.74753 36.5519 0.419533 30.1079 0.419533C23.6999 0.419533 20.0279 5.74753 20.0279 13.5235C20.0279 21.2995 23.6999 26.6275 30.1079 26.6275ZM30.1079 21.7675C26.7239 21.7675 24.9959 18.8515 24.9959 13.5235C24.9959 8.19553 26.7239 5.24353 30.1079 5.24353C33.4919 5.24353 35.2559 8.19553 35.2559 13.5235C35.2559 18.8515 33.4919 21.7675 30.1079 21.7675ZM52.7837 26.6275C59.2277 26.6275 62.8637 21.2995 62.8637 13.5235C62.8637 5.74753 59.2277 0.419533 52.7837 0.419533C46.3757 0.419533 42.7037 5.74753 42.7037 13.5235C42.7037 21.2995 46.3757 26.6275 52.7837 26.6275ZM52.7837 21.7675C49.3997 21.7675 47.6717 18.8515 47.6717 13.5235C47.6717 8.19553 49.3997 5.24353 52.7837 5.24353C56.1677 5.24353 57.9317 8.19553 57.9317 13.5235C57.9317 18.8515 56.1677 21.7675 52.7837 21.7675ZM86.1515 26.1235L76.4675 13.1635L85.7915 0.923533H80.0675L71.4275 12.0475V0.923533H66.4595V26.1235H71.4275V14.3155L80.4275 26.1235H86.1515ZM102.231 11.3275H96.2914V5.42353H91.9354V11.3275H86.0314V15.6835H91.9354V21.6235H96.2914V15.6835H102.231V11.3275Z" fill="#FFCA05"/>
</svg>
