<svg width="44" height="44" viewBox="0 0 44 44" fill="none" xmlns="http://www.w3.org/2000/svg">
<path fill-rule="evenodd" clip-rule="evenodd" d="M38.9421 34.8273C38.2136 34.8273 37.536 35.0221 36.9374 35.3412L27.7355 26.1054C28.32 25.2866 28.735 24.3463 28.927 23.3214H32.1261C32.4182 24.1451 32.9596 24.8575 33.6751 25.3594C34.3905 25.8614 35.2446 26.128 36.1186 26.1223C38.4593 26.1223 40.3539 24.2814 40.3539 22.0056C40.3539 19.7299 38.4593 17.8889 36.1186 17.8889C35.226 17.8835 34.3549 18.162 33.6311 18.6843C32.9073 19.2066 32.3684 19.9456 32.0922 20.7943H28.9327C28.7663 19.8307 28.3988 18.9129 27.8541 18.1007L37.1435 8.7774C37.6913 9.02869 38.2955 9.18116 38.9421 9.18116C41.2828 9.18116 43.1774 7.34022 43.1774 5.06446C43.1774 2.7887 41.2828 0.947754 38.9421 0.947754C36.6042 0.947754 34.7125 2.7887 34.7125 5.06446C34.7125 5.8014 34.9242 6.48469 35.2743 7.08328L26.0809 16.3134C25.2418 15.7173 24.2816 15.3134 23.2687 15.1303V11.7958C24.9826 11.2706 26.2362 9.73175 26.2362 7.88799C26.2362 5.61222 24.3416 3.77128 22.0009 3.77128C19.663 3.77128 17.7713 5.61222 17.7713 7.88799C17.7713 9.7374 19.0277 11.2847 20.7586 11.8042V15.1275C19.7308 15.3082 18.7821 15.7063 17.9604 16.2795L8.75574 7.04375C9.08892 6.45364 9.29504 5.78728 9.29504 5.06728C9.29504 2.79152 7.40045 0.950577 5.05974 0.950577C2.72186 0.950577 0.830094 2.79152 0.830094 5.06728C0.830094 7.34305 2.72186 9.18399 5.05974 9.18399C5.72045 9.18399 6.34445 9.02305 6.90068 8.76046L16.176 18.0696C15.6226 18.8743 15.2442 19.8005 15.0663 20.8H11.9096C11.6333 19.9508 11.094 19.2115 10.3696 18.6891C9.64526 18.1668 8.77347 17.8885 7.88045 17.8946C5.54257 17.8946 3.6508 19.7355 3.6508 22.0113C3.6508 24.287 5.54257 26.128 7.88045 26.128C9.74398 26.128 11.311 24.9534 11.8729 23.327H15.072C15.264 24.3689 15.696 25.3233 16.2974 26.1506L7.10962 35.3722C6.4809 35.0252 5.77506 34.8417 5.05692 34.8386C2.71904 34.8386 0.827271 36.6795 0.827271 38.9553C0.827271 41.231 2.71904 43.072 5.05692 43.072C7.39762 43.072 9.29221 41.231 9.29221 38.9553C9.29221 38.3172 9.13127 37.7214 8.86868 37.1878L18.1157 27.9012C18.8979 28.4207 19.7929 28.7736 20.7557 28.943V32.2155C19.0277 32.735 17.7684 34.2795 17.7684 36.1318C17.7684 38.4075 19.6602 40.2485 21.9981 40.2485C24.3388 40.2485 26.2334 38.4075 26.2334 36.1318C26.2334 34.2908 24.9826 32.7492 23.2659 32.224V28.9402C24.2372 28.7652 25.1379 28.4038 25.9256 27.8758L35.1557 37.1398C34.8648 37.7009 34.7119 38.3232 34.7096 38.9553C34.7096 41.231 36.6014 43.072 38.9393 43.072C41.28 43.072 43.1746 41.231 43.1746 38.9553C43.1746 36.6795 41.2828 34.8273 38.9421 34.8273Z" fill="#FFCA05"/>
</svg>
