<svg width="48" height="48" viewBox="0 0 48 48" fill="none" xmlns="http://www.w3.org/2000/svg">
<path d="M40.5 42V24H28.5V42H22.5V18H10.5V42H6V3H3V42C3 42.7956 3.31607 43.5587 3.87868 44.1213C4.44129 44.6839 5.20435 45 6 45H45V42H40.5ZM19.5 21V30H13.5V21H19.5ZM37.5 27V36H31.5V27H37.5Z" fill="#FFCA05"/>
<path d="M34.1799 21C33.5431 21.0005 32.9228 20.7971 32.4099 20.4195L16.8084 8.98052L12.3639 15L9.95642 13.209L14.4294 7.20902C14.8945 6.58282 15.5854 6.16264 16.3554 6.03772C17.1254 5.9128 17.9137 6.09299 18.5529 6.54002L34.1844 18L39.5904 10.71L42.0009 12.495L36.5949 19.788C36.3151 20.1648 35.9509 20.4707 35.5315 20.6811C35.1121 20.8916 34.6492 21.0008 34.1799 21V21Z" fill="#FFCA05"/>
</svg>
