<svg width="80" height="54" viewBox="0 0 80 27" fill="none" xmlns="http://www.w3.org/2000/svg">
<path d="M0.804397 26.1235H17.6524V21.3355H8.1844L13.1164 16.4035C15.4924 14.0275 17.2564 11.3995 17.2564 8.33953C17.2564 3.29954 13.2604 0.419533 8.9404 0.419533C5.5204 0.419533 2.2444 2.14753 0.624398 5.74753L4.8004 8.19553C5.6284 6.39553 7.0684 5.24353 9.0124 5.24353C10.9204 5.24353 12.2884 6.50353 12.2884 8.51953C12.2884 10.2115 11.0284 11.8675 9.4084 13.5595L0.804397 22.4155V26.1235ZM29.9458 26.6275C36.3898 26.6275 40.0258 21.2995 40.0258 13.5235C40.0258 5.74753 36.3898 0.419533 29.9458 0.419533C23.5378 0.419533 19.8658 5.74753 19.8658 13.5235C19.8658 21.2995 23.5378 26.6275 29.9458 26.6275ZM29.9458 21.7675C26.5618 21.7675 24.8338 18.8515 24.8338 13.5235C24.8338 8.19553 26.5618 5.24353 29.9458 5.24353C33.3298 5.24353 35.0938 8.19553 35.0938 13.5235C35.0938 18.8515 33.3298 21.7675 29.9458 21.7675ZM63.3136 26.1235L53.6296 13.1635L62.9536 0.923533H57.2296L48.5896 12.0475V0.923533H43.6216V26.1235H48.5896V14.3155L57.5896 26.1235H63.3136ZM79.3935 11.3275H73.4535V5.42353H69.0975V11.3275H63.1935V15.6835H69.0975V21.6235H73.4535V15.6835H79.3935V11.3275Z" fill="#FFCA05"/>
</svg>
