<svg width="78" height="78" viewBox="0 0 78 78" fill="none" xmlns="http://www.w3.org/2000/svg">
<path d="M56.7988 66.7646C59.451 66.7646 61.9945 65.7111 63.8699 63.8357C65.7453 61.9604 66.7988 59.4168 66.7988 56.7646C66.7988 54.1125 65.7453 51.5689 63.8699 49.6936C61.9945 47.8182 59.451 46.7646 56.7988 46.7646C54.1467 46.7646 51.6031 47.8182 49.7278 49.6936C47.8524 51.5689 46.7988 54.1125 46.7988 56.7646C46.7988 59.4168 47.8524 61.9604 49.7278 63.8357C51.6031 65.7111 54.1467 66.7646 56.7988 66.7646ZM20.7988 30.7647C23.451 30.7647 25.9945 29.7111 27.8699 27.8357C29.7453 25.9604 30.7988 23.4168 30.7988 20.7646C30.7988 18.1125 29.7453 15.5689 27.8699 13.6936C25.9945 11.8182 23.451 10.7646 20.7988 10.7646C18.1467 10.7646 15.6031 11.8182 13.7278 13.6936C11.8524 15.5689 10.7988 18.1125 10.7988 20.7646C10.7988 23.4168 11.8524 25.9604 13.7278 27.8357C15.6031 29.7111 18.1467 30.7647 20.7988 30.7647ZM12.7988 74.7646C15.451 74.7646 17.9945 73.7111 19.8699 71.8357C21.7453 69.9604 22.7988 67.4168 22.7988 64.7647C22.7988 62.1125 21.7453 59.5689 19.8699 57.6936C17.9945 55.8182 15.451 54.7646 12.7988 54.7646C10.1467 54.7646 7.60312 55.8182 5.72776 57.6936C3.8524 59.5689 2.79883 62.1125 2.79883 64.7647C2.79883 67.4168 3.8524 69.9604 5.72776 71.8357C7.60312 73.7111 10.1467 74.7646 12.7988 74.7646ZM64.7988 22.7646C67.451 22.7646 69.9945 21.7111 71.8699 19.8357C73.7453 17.9604 74.7988 15.4168 74.7988 12.7646C74.7988 10.1125 73.7453 7.56894 71.8699 5.69358C69.9945 3.81822 67.451 2.76465 64.7988 2.76465C62.1467 2.76465 59.6031 3.81822 57.7278 5.69358C55.8524 7.56894 54.7988 10.1125 54.7988 12.7646C54.7988 15.4168 55.8524 17.9604 57.7278 19.8357C59.6031 21.7111 62.1467 22.7646 64.7988 22.7646ZM38.7988 74.7646L46.7988 66.7646L38.7988 74.7646Z" fill="#FFCA05"/>
<path d="M30.7988 10.7646L38.7988 2.76465M22.7988 54.7647L54.7988 22.7646M38.7988 74.7646L46.7988 66.7647M56.7988 66.7647C59.451 66.7647 61.9945 65.7111 63.8699 63.8357C65.7453 61.9604 66.7988 59.4168 66.7988 56.7646C66.7988 54.1125 65.7453 51.5689 63.8699 49.6936C61.9945 47.8182 59.451 46.7646 56.7988 46.7646C54.1467 46.7646 51.6031 47.8182 49.7278 49.6936C47.8524 51.5689 46.7988 54.1125 46.7988 56.7646C46.7988 59.4168 47.8524 61.9604 49.7278 63.8357C51.6031 65.7111 54.1467 66.7647 56.7988 66.7647ZM20.7988 30.7647C23.451 30.7647 25.9945 29.7111 27.8699 27.8357C29.7453 25.9604 30.7988 23.4168 30.7988 20.7646C30.7988 18.1125 29.7453 15.5689 27.8699 13.6936C25.9945 11.8182 23.451 10.7646 20.7988 10.7646C18.1467 10.7646 15.6031 11.8182 13.7278 13.6936C11.8524 15.5689 10.7988 18.1125 10.7988 20.7646C10.7988 23.4168 11.8524 25.9604 13.7278 27.8357C15.6031 29.7111 18.1467 30.7647 20.7988 30.7647ZM12.7988 74.7646C15.451 74.7646 17.9945 73.7111 19.8699 71.8357C21.7453 69.9604 22.7988 67.4168 22.7988 64.7647C22.7988 62.1125 21.7453 59.5689 19.8699 57.6936C17.9945 55.8182 15.451 54.7647 12.7988 54.7647C10.1467 54.7647 7.60312 55.8182 5.72776 57.6936C3.8524 59.5689 2.79883 62.1125 2.79883 64.7647C2.79883 67.4168 3.8524 69.9604 5.72776 71.8357C7.60312 73.7111 10.1467 74.7646 12.7988 74.7646ZM64.7988 22.7646C67.451 22.7646 69.9945 21.7111 71.8699 19.8357C73.7453 17.9604 74.7988 15.4168 74.7988 12.7646C74.7988 10.1125 73.7453 7.56894 71.8699 5.69358C69.9945 3.81822 67.451 2.76465 64.7988 2.76465C62.1467 2.76465 59.6031 3.81822 57.7278 5.69358C55.8524 7.56894 54.7988 10.1125 54.7988 12.7646C54.7988 15.4168 55.8524 17.9604 57.7278 19.8357C59.6031 21.7111 62.1467 22.7646 64.7988 22.7646Z" stroke="#FFCA05" stroke-width="5" stroke-linecap="round" stroke-linejoin="round"/>
</svg>
